# xmcd
#
# Track frame offsets:
#	150
#	12833
#	31928
#	56239
#	70560
#	94145
#	104291
#	128059
#	147997
#	169651
#	181457
#	212405
#	229228
#	244325
#	256746
#	269931
#	282436
#	298875
#	319688
#	330977
#
# Disc length: 4589 seconds
# Revision: 0
# Processed by: cddbd v1.5.2PL0 Copyright (c) Steve Scherf et al.
# Submitted via: dBpowerAMP V12.0
#
DISCID=2d11eb14
DTITLE=Various Artist - On The Good Foot, Essential Funk Classics, Disc 1
DYEAR=1900
DGENRE=Soul\\Funk
TTITLE0=Maceo and The King's Men - Got to Get Cha
TTITLE1=Aaron Neville - Hercules
TTITLE2=Curtis Mayfield - Freddie's Dead
TTITLE3=Betty Harris - Ride Your Pony
TTITLE4=Gill Scott-Heron - The Bottle
TTITLE5=Joe Tex - I Gotcha
TTITLE6=Mavis Staples - Chocolate City
TTITLE7=Dynamic 7 - Squeeze Me (Parts 1 and 2)
TTITLE8=Leroy Hutson - Lucky Fellow
TTITLE9=Ike and Tina Turner - Cussin', Cryin' and Carryin' On
TTITLE10=Billy Butler - The Saga Of Sadie Lee
TTITLE11=Bobby Womack - You're Welcome, Stop On By
TTITLE12=The Jones Girls - Will You Be There
TTITLE13=Betty Harris - There's a Break In The Road
TTITLE14=The Meters - Handclapping song
TTITLE15=Pee Wee Ellis - Moon Walk
TTITLE16=Curtis Mayfield - You're So Good To Me
TTITLE17=Linda Clifford - Never Gonna Stop
TTITLE18=Jean Knight - Jessie Joe
TTITLE19=Ella Washington - I Don't Care About Your Past
EXTD=
EXTT0=
EXTT1=
EXTT2=
EXTT3=
EXTT4=
EXTT5=
EXTT6=
EXTT7=
EXTT8=
EXTT9=
EXTT10=
EXTT11=
EXTT12=
EXTT13=
EXTT14=
EXTT15=
EXTT16=
EXTT17=
EXTT18=
EXTT19=
PLAYORDER=
